<svg version="1.1" id="Camada_1" xmlns="http://www.w3.org/2000/svg" x="0" y="0" viewBox="0 0 700 700" xml:space="preserve"><style>.st1{fill:#fff}</style><path d="M100 0h500c55 0 100 45 100 100v500c0 55-45 100-100 100H100C45 700 0 655 0 600V100C0 45 45 0 100 0z" fill="#47db8a"/><path class="st1" d="M340 312.5L275 275 125 535l-20 87.5c-2.5 12.5 12.5 20 20 12.5l65-60 150-262.5zm85-37.5l-65 37.5 150 260 65 60c10 7.5 22.5 0 20-12.5l-20-85-150-260z"/><path d="M435 425c-25 15-52.5 25-85 25-82.5 0-150-67.5-150-150 0-7.5 0-17.5 2.5-25h-75c-2.5 7.5-2.5 17.5-2.5 25 0 125 100 225 225 225 42.5 0 85-12.5 117.5-35L435 425z" fill-rule="evenodd" clip-rule="evenodd" fill="#fff"/><path class="st1" d="M425 150h-25v-50H300v50h-25c-15 0-25 10-25 25v100l80 100c10 12.5 30 12.5 40 0l80-100V175c0-15-10-25-25-25z"/><circle cx="350" cy="250" r="50" fill="#030708"/></svg>