<?xml version="1.0" encoding="utf-8"?>
<!-- Generator: Adobe Illustrator 24.0.1, SVG Export Plug-In . SVG Version: 6.00 Build 0)  -->
<svg version="1.1" id="Camada_1" xmlns="http://www.w3.org/2000/svg" xmlns:xlink="http://www.w3.org/1999/xlink" x="0px" y="0px"
	 viewBox="0 0 700 700" style="enable-background:new 0 0 700 700;" xml:space="preserve">
<style type="text/css">
	.st0{fill:#47DB8A;}
	.st1{fill:#FFFFFF;}
	.st2{fill-rule:evenodd;clip-rule:evenodd;fill:#FFFFFF;}
	.st3{fill:#030708;}
</style>
<g>
	<path class="st0" d="M100,0h500c55,0,100,45,100,100v500c0,55-45,100-100,100H100C45,700,0,655,0,600V100C0,45,45,0,100,0z"/>
	<g>
		<path class="st1" d="M340,312.5L275,275L125,535l-20,87.5c-2.5,12.5,12.5,20,20,12.5l65-60L340,312.5z"/>
		<path class="st1" d="M425,275l-65,37.5l150,260l65,60c10,7.5,22.5,0,20-12.5l-20-85L425,275z"/>
		<path class="st2" d="M435,425c-25,15-52.5,25-85,25c-82.5,0-150-67.5-150-150c0-7.5,0-17.5,2.5-25h-75c-2.5,7.5-2.5,17.5-2.5,25
			c0,125,100,225,225,225c42.5,0,85-12.5,117.5-35L435,425z"/>
		<path class="st1" d="M425,150h-25v-50H300v50h-25c-15,0-25,10-25,25v100l80,100c10,12.5,30,12.5,40,0l80-100V175
			C450,160,440,150,425,150z"/>
		<circle class="st3" cx="350" cy="250" r="50"/>
	</g>
</g>
</svg>
